<svg xmlns="http://www.w3.org/2000/svg" xmlns:xlink="http://www.w3.org/1999/xlink" width="1366" zoomAndPan="magnify" viewBox="0 0 1024.5 576" height="768" preserveAspectRatio="xMidYMid meet" version="1.0"><defs><g/><clipPath id="522903f857"><path d="M 476.757812 339.535156 L 623.117188 339.535156 L 623.117188 348.023438 L 476.757812 348.023438 Z M 476.757812 339.535156 " clip-rule="nonzero"/></clipPath></defs><g fill="#ffffff" fill-opacity="1"><g transform="translate(219.887239, 324.713692)"><g><path d="M 7.34375 -93.65625 L 83.15625 -93.65625 L 83.15625 -81.5625 L 51.359375 -81.5625 L 51.359375 0 L 39.125 0 L 39.125 -81.5625 L 7.34375 -81.5625 Z M 7.34375 -93.65625 "/></g></g></g><g fill="#ffffff" fill-opacity="1"><g transform="translate(297.854363, 324.713692)"><g><path d="M 12.234375 -93.65625 L 72.078125 -93.65625 L 72.078125 -81.5625 L 24.171875 -81.5625 L 24.171875 -52.9375 L 60.859375 -52.9375 L 60.859375 -40.859375 L 24.171875 -40.859375 L 24.171875 -11.9375 L 72.078125 -11.9375 L 72.078125 0 L 12.234375 0 Z M 12.234375 -93.65625 "/></g></g></g><g fill="#ffffff" fill-opacity="1"><g transform="translate(369.635826, 324.713692)"><g><path d="M 90.921875 -16.96875 C 86.410156 -11.21875 80.941406 -6.804688 74.515625 -3.734375 C 68.085938 -0.671875 61.234375 0.859375 53.953125 0.859375 C 45.410156 0.859375 37.546875 -1.296875 30.359375 -5.609375 C 23.066406 -9.828125 17.3125 -15.628906 13.09375 -23.015625 C 8.875 -30.304688 6.765625 -38.265625 6.765625 -46.890625 C 6.765625 -55.523438 8.875 -63.535156 13.09375 -70.921875 C 17.3125 -78.304688 23.066406 -84.109375 30.359375 -88.328125 C 37.546875 -92.546875 45.410156 -94.65625 53.953125 -94.65625 C 60.660156 -94.65625 67.082031 -93.3125 73.21875 -90.625 C 79.363281 -87.84375 84.640625 -83.960938 89.046875 -78.984375 L 80.125 -71.0625 C 76.769531 -74.707031 72.789062 -77.585938 68.1875 -79.703125 C 63.582031 -81.710938 58.835938 -82.71875 53.953125 -82.71875 C 47.617188 -82.71875 41.765625 -81.132812 36.390625 -77.96875 C 30.929688 -74.707031 26.617188 -70.34375 23.453125 -64.875 C 20.285156 -59.3125 18.703125 -53.316406 18.703125 -46.890625 C 18.703125 -40.472656 20.285156 -34.53125 23.453125 -29.0625 C 26.617188 -23.5 30.929688 -19.132812 36.390625 -15.96875 C 41.765625 -12.707031 47.617188 -11.078125 53.953125 -11.078125 C 59.316406 -11.078125 64.445312 -12.273438 69.34375 -14.671875 C 74.132812 -16.972656 78.207031 -20.234375 81.5625 -24.453125 Z M 90.921875 -16.96875 "/></g></g></g><g fill="#ffffff" fill-opacity="1"><g transform="translate(454.795591, 324.713692)"><g><path d="M 24.59375 -40.859375 L 24.59375 0 L 12.375 0 L 12.375 -93.65625 L 24.59375 -93.65625 L 24.59375 -52.9375 L 70.34375 -52.9375 L 70.34375 -93.65625 L 82.4375 -93.65625 L 82.4375 0 L 70.484375 0 L 70.34375 -40.859375 Z M 24.59375 -40.859375 "/></g></g></g><g fill="#ffffff" fill-opacity="1"><g transform="translate(537.078304, 324.713692)"><g><path d="M 12.234375 0 L 12.234375 -93.65625 L 40.5625 -93.65625 C 47.1875 -93.65625 53.375 -92.457031 59.125 -90.0625 C 64.875 -87.5625 69.8125 -84.007812 73.9375 -79.40625 C 77.78125 -75.09375 80.753906 -70.15625 82.859375 -64.59375 C 84.878906 -59.03125 85.890625 -53.179688 85.890625 -47.046875 C 85.890625 -40.804688 84.878906 -34.90625 82.859375 -29.34375 C 80.753906 -23.6875 77.78125 -18.703125 73.9375 -14.390625 C 69.8125 -9.691406 64.875 -6.140625 59.125 -3.734375 C 53.375 -1.242188 47.1875 0 40.5625 0 Z M 24.171875 -11.9375 L 40.5625 -11.9375 C 47.5625 -11.9375 53.601562 -13.613281 58.6875 -16.96875 C 63.582031 -20.226562 67.375 -24.546875 70.0625 -29.921875 C 72.644531 -35.191406 73.9375 -40.898438 73.9375 -47.046875 C 73.9375 -51.648438 73.171875 -56.0625 71.640625 -60.28125 C 70.109375 -64.40625 67.851562 -68.097656 64.875 -71.359375 C 62 -74.710938 58.5 -77.253906 54.375 -78.984375 C 50.15625 -80.703125 45.550781 -81.5625 40.5625 -81.5625 L 24.171875 -81.5625 Z M 24.171875 -11.9375 "/></g></g></g><g fill="#ffffff" fill-opacity="1"><g transform="translate(617.922497, 324.713692)"><g><path d="M 95.09375 -23.015625 C 90.78125 -15.628906 85.023438 -9.828125 77.828125 -5.609375 C 70.535156 -1.296875 62.625 0.859375 54.09375 0.859375 C 45.457031 0.859375 37.546875 -1.296875 30.359375 -5.609375 C 23.066406 -9.828125 17.3125 -15.628906 13.09375 -23.015625 C 8.875 -30.304688 6.765625 -38.265625 6.765625 -46.890625 C 6.765625 -55.429688 8.875 -63.394531 13.09375 -70.78125 C 17.40625 -78.070312 23.207031 -83.875 30.5 -88.1875 C 37.6875 -92.40625 45.550781 -94.515625 54.09375 -94.515625 C 62.53125 -94.515625 70.441406 -92.40625 77.828125 -88.1875 C 85.117188 -83.875 90.875 -78.070312 95.09375 -70.78125 C 99.3125 -63.394531 101.421875 -55.429688 101.421875 -46.890625 C 101.421875 -38.359375 99.3125 -30.398438 95.09375 -23.015625 Z M 84.734375 -64.734375 C 81.566406 -70.203125 77.25 -74.566406 71.78125 -77.828125 C 66.3125 -80.992188 60.414062 -82.578125 54.09375 -82.578125 C 47.664062 -82.578125 41.765625 -80.992188 36.390625 -77.828125 C 30.929688 -74.566406 26.617188 -70.203125 23.453125 -64.734375 C 20.285156 -59.265625 18.703125 -53.316406 18.703125 -46.890625 C 18.703125 -40.367188 20.285156 -34.378906 23.453125 -28.921875 C 26.617188 -23.453125 30.929688 -19.132812 36.390625 -15.96875 C 41.859375 -12.707031 47.757812 -11.078125 54.09375 -11.078125 C 60.613281 -11.078125 66.5625 -12.707031 71.9375 -15.96875 C 77.394531 -19.132812 81.707031 -23.453125 84.875 -28.921875 C 87.945312 -34.378906 89.484375 -40.367188 89.484375 -46.890625 C 89.484375 -53.316406 87.898438 -59.265625 84.734375 -64.734375 Z M 84.734375 -64.734375 "/></g></g></g><g fill="#ffffff" fill-opacity="1"><g transform="translate(713.583518, 324.713692)"><g><path d="M 7.34375 -93.65625 L 83.15625 -93.65625 L 83.15625 -81.5625 L 51.359375 -81.5625 L 51.359375 0 L 39.125 0 L 39.125 -81.5625 L 7.34375 -81.5625 Z M 7.34375 -93.65625 "/></g></g></g><g clip-path="url(#522903f857)"><path fill="#ffffff" d="M 476.757812 339.535156 L 623.105469 339.535156 L 623.105469 348.023438 L 476.757812 348.023438 Z M 476.757812 339.535156 " fill-opacity="1" fill-rule="nonzero"/></g><g fill="#ffffff" fill-opacity="1"><g transform="translate(672.700096, 347.379393)"><g/></g></g><g fill="#ffffff" fill-opacity="1"><g transform="translate(678.615957, 347.379393)"><g><path d="M 4.046875 0.171875 C 3.328125 0.171875 2.703125 0.0507812 2.171875 -0.1875 C 1.648438 -0.425781 1.25 -0.765625 0.96875 -1.203125 C 0.6875 -1.640625 0.546875 -2.15625 0.546875 -2.75 L 2.46875 -2.75 C 2.46875 -2.34375 2.609375 -2.019531 2.890625 -1.78125 C 3.179688 -1.550781 3.5625 -1.4375 4.03125 -1.4375 C 4.445312 -1.4375 4.773438 -1.515625 5.015625 -1.671875 C 5.253906 -1.835938 5.375 -2.066406 5.375 -2.359375 C 5.375 -2.660156 5.226562 -2.90625 4.9375 -3.09375 C 4.644531 -3.28125 4.195312 -3.441406 3.59375 -3.578125 C 2.582031 -3.796875 1.832031 -4.117188 1.34375 -4.546875 C 0.851562 -4.984375 0.609375 -5.554688 0.609375 -6.265625 C 0.609375 -7.046875 0.894531 -7.664062 1.46875 -8.125 C 2.050781 -8.582031 2.84375 -8.8125 3.84375 -8.8125 C 4.519531 -8.8125 5.109375 -8.691406 5.609375 -8.453125 C 6.117188 -8.222656 6.507812 -7.894531 6.78125 -7.46875 C 7.0625 -7.050781 7.203125 -6.550781 7.203125 -5.96875 L 5.3125 -5.96875 C 5.3125 -6.351562 5.179688 -6.65625 4.921875 -6.875 C 4.671875 -7.09375 4.316406 -7.203125 3.859375 -7.203125 C 3.453125 -7.203125 3.128906 -7.125 2.890625 -6.96875 C 2.648438 -6.8125 2.53125 -6.585938 2.53125 -6.296875 C 2.53125 -6.035156 2.660156 -5.8125 2.921875 -5.625 C 3.191406 -5.445312 3.65625 -5.28125 4.3125 -5.125 C 5.382812 -4.863281 6.160156 -4.519531 6.640625 -4.09375 C 7.117188 -3.664062 7.359375 -3.113281 7.359375 -2.4375 C 7.359375 -1.613281 7.0625 -0.972656 6.46875 -0.515625 C 5.882812 -0.0546875 5.078125 0.171875 4.046875 0.171875 Z M 4.046875 0.171875 "/></g></g></g><g fill="#ffffff" fill-opacity="1"><g transform="translate(689.529998, 347.379393)"><g><path d="M 1.03125 0 L 1.03125 -8.640625 L 6.71875 -8.640625 L 6.71875 -6.984375 L 2.984375 -6.984375 L 2.984375 -5.203125 L 6.375 -5.203125 L 6.375 -3.5625 L 2.984375 -3.5625 L 2.984375 -1.671875 L 6.84375 -1.671875 L 6.84375 0 Z M 1.03125 0 "/></g></g></g><g fill="#ffffff" fill-opacity="1"><g transform="translate(700.011925, 347.379393)"><g><path d="M 0.109375 0 L 3.546875 -8.640625 L 5.46875 -8.640625 L 8.90625 0 L 6.796875 0 L 6.21875 -1.5 L 2.796875 -1.5 L 2.203125 0 Z M 3.296875 -3.03125 L 5.734375 -3.03125 L 4.5 -6.203125 Z M 3.296875 -3.03125 "/></g></g></g><g fill="#ffffff" fill-opacity="1"><g transform="translate(712.024781, 347.379393)"><g><path d="M 1.03125 0 L 1.03125 -8.640625 L 2.703125 -8.640625 L 5.78125 -4.15625 L 8.84375 -8.640625 L 10.484375 -8.640625 L 10.484375 0 L 8.546875 0 L 8.546875 -5.203125 L 6.4375 -2.140625 L 5.078125 -2.140625 L 2.984375 -5.203125 L 2.984375 0 Z M 1.03125 0 "/></g></g></g><g fill="#ffffff" fill-opacity="1"><g transform="translate(726.556281, 347.379393)"><g><path d="M 1.03125 0 L 1.03125 -8.640625 L 3 -8.640625 L 3 -1.84375 L 6.78125 -1.84375 L 6.78125 0 Z M 1.03125 0 "/></g></g></g><g fill="#ffffff" fill-opacity="1"><g transform="translate(736.667823, 347.379393)"><g><path d="M 1.03125 0 L 1.03125 -8.640625 L 6.71875 -8.640625 L 6.71875 -6.984375 L 2.984375 -6.984375 L 2.984375 -5.203125 L 6.375 -5.203125 L 6.375 -3.5625 L 2.984375 -3.5625 L 2.984375 -1.671875 L 6.84375 -1.671875 L 6.84375 0 Z M 1.03125 0 "/></g></g></g><g fill="#ffffff" fill-opacity="1"><g transform="translate(747.14975, 347.379393)"><g><path d="M 4.046875 0.171875 C 3.328125 0.171875 2.703125 0.0507812 2.171875 -0.1875 C 1.648438 -0.425781 1.25 -0.765625 0.96875 -1.203125 C 0.6875 -1.640625 0.546875 -2.15625 0.546875 -2.75 L 2.46875 -2.75 C 2.46875 -2.34375 2.609375 -2.019531 2.890625 -1.78125 C 3.179688 -1.550781 3.5625 -1.4375 4.03125 -1.4375 C 4.445312 -1.4375 4.773438 -1.515625 5.015625 -1.671875 C 5.253906 -1.835938 5.375 -2.066406 5.375 -2.359375 C 5.375 -2.660156 5.226562 -2.90625 4.9375 -3.09375 C 4.644531 -3.28125 4.195312 -3.441406 3.59375 -3.578125 C 2.582031 -3.796875 1.832031 -4.117188 1.34375 -4.546875 C 0.851562 -4.984375 0.609375 -5.554688 0.609375 -6.265625 C 0.609375 -7.046875 0.894531 -7.664062 1.46875 -8.125 C 2.050781 -8.582031 2.84375 -8.8125 3.84375 -8.8125 C 4.519531 -8.8125 5.109375 -8.691406 5.609375 -8.453125 C 6.117188 -8.222656 6.507812 -7.894531 6.78125 -7.46875 C 7.0625 -7.050781 7.203125 -6.550781 7.203125 -5.96875 L 5.3125 -5.96875 C 5.3125 -6.351562 5.179688 -6.65625 4.921875 -6.875 C 4.671875 -7.09375 4.316406 -7.203125 3.859375 -7.203125 C 3.453125 -7.203125 3.128906 -7.125 2.890625 -6.96875 C 2.648438 -6.8125 2.53125 -6.585938 2.53125 -6.296875 C 2.53125 -6.035156 2.660156 -5.8125 2.921875 -5.625 C 3.191406 -5.445312 3.65625 -5.28125 4.3125 -5.125 C 5.382812 -4.863281 6.160156 -4.519531 6.640625 -4.09375 C 7.117188 -3.664062 7.359375 -3.113281 7.359375 -2.4375 C 7.359375 -1.613281 7.0625 -0.972656 6.46875 -0.515625 C 5.882812 -0.0546875 5.078125 0.171875 4.046875 0.171875 Z M 4.046875 0.171875 "/></g></g></g><g fill="#ffffff" fill-opacity="1"><g transform="translate(758.063791, 347.379393)"><g><path d="M 4.046875 0.171875 C 3.328125 0.171875 2.703125 0.0507812 2.171875 -0.1875 C 1.648438 -0.425781 1.25 -0.765625 0.96875 -1.203125 C 0.6875 -1.640625 0.546875 -2.15625 0.546875 -2.75 L 2.46875 -2.75 C 2.46875 -2.34375 2.609375 -2.019531 2.890625 -1.78125 C 3.179688 -1.550781 3.5625 -1.4375 4.03125 -1.4375 C 4.445312 -1.4375 4.773438 -1.515625 5.015625 -1.671875 C 5.253906 -1.835938 5.375 -2.066406 5.375 -2.359375 C 5.375 -2.660156 5.226562 -2.90625 4.9375 -3.09375 C 4.644531 -3.28125 4.195312 -3.441406 3.59375 -3.578125 C 2.582031 -3.796875 1.832031 -4.117188 1.34375 -4.546875 C 0.851562 -4.984375 0.609375 -5.554688 0.609375 -6.265625 C 0.609375 -7.046875 0.894531 -7.664062 1.46875 -8.125 C 2.050781 -8.582031 2.84375 -8.8125 3.84375 -8.8125 C 4.519531 -8.8125 5.109375 -8.691406 5.609375 -8.453125 C 6.117188 -8.222656 6.507812 -7.894531 6.78125 -7.46875 C 7.0625 -7.050781 7.203125 -6.550781 7.203125 -5.96875 L 5.3125 -5.96875 C 5.3125 -6.351562 5.179688 -6.65625 4.921875 -6.875 C 4.671875 -7.09375 4.316406 -7.203125 3.859375 -7.203125 C 3.453125 -7.203125 3.128906 -7.125 2.890625 -6.96875 C 2.648438 -6.8125 2.53125 -6.585938 2.53125 -6.296875 C 2.53125 -6.035156 2.660156 -5.8125 2.921875 -5.625 C 3.191406 -5.445312 3.65625 -5.28125 4.3125 -5.125 C 5.382812 -4.863281 6.160156 -4.519531 6.640625 -4.09375 C 7.117188 -3.664062 7.359375 -3.113281 7.359375 -2.4375 C 7.359375 -1.613281 7.0625 -0.972656 6.46875 -0.515625 C 5.882812 -0.0546875 5.078125 0.171875 4.046875 0.171875 Z M 4.046875 0.171875 "/></g></g></g><g fill="#ffffff" fill-opacity="1"><g transform="translate(670.144058, 358.696692)"><g><path d="M 4.046875 0.171875 C 3.328125 0.171875 2.703125 0.0507812 2.171875 -0.1875 C 1.648438 -0.425781 1.25 -0.765625 0.96875 -1.203125 C 0.6875 -1.640625 0.546875 -2.15625 0.546875 -2.75 L 2.46875 -2.75 C 2.46875 -2.34375 2.609375 -2.019531 2.890625 -1.78125 C 3.179688 -1.550781 3.5625 -1.4375 4.03125 -1.4375 C 4.445312 -1.4375 4.773438 -1.515625 5.015625 -1.671875 C 5.253906 -1.835938 5.375 -2.066406 5.375 -2.359375 C 5.375 -2.660156 5.226562 -2.90625 4.9375 -3.09375 C 4.644531 -3.28125 4.195312 -3.441406 3.59375 -3.578125 C 2.582031 -3.796875 1.832031 -4.117188 1.34375 -4.546875 C 0.851562 -4.984375 0.609375 -5.554688 0.609375 -6.265625 C 0.609375 -7.046875 0.894531 -7.664062 1.46875 -8.125 C 2.050781 -8.582031 2.84375 -8.8125 3.84375 -8.8125 C 4.519531 -8.8125 5.109375 -8.691406 5.609375 -8.453125 C 6.117188 -8.222656 6.507812 -7.894531 6.78125 -7.46875 C 7.0625 -7.050781 7.203125 -6.550781 7.203125 -5.96875 L 5.3125 -5.96875 C 5.3125 -6.351562 5.179688 -6.65625 4.921875 -6.875 C 4.671875 -7.09375 4.316406 -7.203125 3.859375 -7.203125 C 3.453125 -7.203125 3.128906 -7.125 2.890625 -6.96875 C 2.648438 -6.8125 2.53125 -6.585938 2.53125 -6.296875 C 2.53125 -6.035156 2.660156 -5.8125 2.921875 -5.625 C 3.191406 -5.445312 3.65625 -5.28125 4.3125 -5.125 C 5.382812 -4.863281 6.160156 -4.519531 6.640625 -4.09375 C 7.117188 -3.664062 7.359375 -3.113281 7.359375 -2.4375 C 7.359375 -1.613281 7.0625 -0.972656 6.46875 -0.515625 C 5.882812 -0.0546875 5.078125 0.171875 4.046875 0.171875 Z M 4.046875 0.171875 "/></g></g></g><g fill="#ffffff" fill-opacity="1"><g transform="translate(681.058099, 358.696692)"><g><path d="M 5.140625 0.171875 C 4.242188 0.171875 3.445312 -0.015625 2.75 -0.390625 C 2.050781 -0.773438 1.503906 -1.304688 1.109375 -1.984375 C 0.722656 -2.660156 0.53125 -3.4375 0.53125 -4.3125 C 0.53125 -5.195312 0.722656 -5.976562 1.109375 -6.65625 C 1.503906 -7.332031 2.050781 -7.859375 2.75 -8.234375 C 3.445312 -8.617188 4.242188 -8.8125 5.140625 -8.8125 C 6.046875 -8.8125 6.84375 -8.617188 7.53125 -8.234375 C 8.21875 -7.859375 8.757812 -7.332031 9.15625 -6.65625 C 9.550781 -5.976562 9.75 -5.195312 9.75 -4.3125 C 9.75 -3.4375 9.550781 -2.660156 9.15625 -1.984375 C 8.757812 -1.304688 8.21875 -0.773438 7.53125 -0.390625 C 6.84375 -0.015625 6.046875 0.171875 5.140625 0.171875 Z M 2.53125 -4.3125 C 2.53125 -3.800781 2.640625 -3.347656 2.859375 -2.953125 C 3.085938 -2.554688 3.394531 -2.242188 3.78125 -2.015625 C 4.175781 -1.796875 4.628906 -1.6875 5.140625 -1.6875 C 5.648438 -1.6875 6.097656 -1.796875 6.484375 -2.015625 C 6.878906 -2.242188 7.1875 -2.554688 7.40625 -2.953125 C 7.625 -3.347656 7.734375 -3.800781 7.734375 -4.3125 C 7.734375 -4.832031 7.625 -5.289062 7.40625 -5.6875 C 7.1875 -6.082031 6.878906 -6.390625 6.484375 -6.609375 C 6.097656 -6.835938 5.648438 -6.953125 5.140625 -6.953125 C 4.628906 -6.953125 4.175781 -6.835938 3.78125 -6.609375 C 3.394531 -6.390625 3.085938 -6.082031 2.859375 -5.6875 C 2.640625 -5.289062 2.53125 -4.832031 2.53125 -4.3125 Z M 2.53125 -4.3125 "/></g></g></g><g fill="#ffffff" fill-opacity="1"><g transform="translate(694.342616, 358.696692)"><g><path d="M 1.03125 0 L 1.03125 -8.640625 L 3 -8.640625 L 3 -1.84375 L 6.78125 -1.84375 L 6.78125 0 Z M 1.03125 0 "/></g></g></g><g fill="#ffffff" fill-opacity="1"><g transform="translate(704.454159, 358.696692)"><g><path d="M 4.5625 0.171875 C 3.8125 0.171875 3.164062 0.0195312 2.625 -0.28125 C 2.09375 -0.582031 1.679688 -1.007812 1.390625 -1.5625 C 1.097656 -2.113281 0.953125 -2.78125 0.953125 -3.5625 L 0.953125 -8.640625 L 2.90625 -8.640625 L 2.90625 -3.6875 C 2.90625 -2.351562 3.457031 -1.6875 4.5625 -1.6875 C 5.664062 -1.6875 6.21875 -2.351562 6.21875 -3.6875 L 6.21875 -8.640625 L 8.1875 -8.640625 L 8.1875 -3.5625 C 8.1875 -2.78125 8.039062 -2.113281 7.75 -1.5625 C 7.457031 -1.007812 7.039062 -0.582031 6.5 -0.28125 C 5.957031 0.0195312 5.3125 0.171875 4.5625 0.171875 Z M 4.5625 0.171875 "/></g></g></g><g fill="#ffffff" fill-opacity="1"><g transform="translate(716.590487, 358.696692)"><g><path d="M 3.109375 0 L 3.109375 -6.796875 L 0.375 -6.796875 L 0.375 -8.640625 L 7.8125 -8.640625 L 7.8125 -6.796875 L 5.078125 -6.796875 L 5.078125 0 Z M 3.109375 0 "/></g></g></g><g fill="#ffffff" fill-opacity="1"><g transform="translate(727.776151, 358.696692)"><g><path d="M 1.03125 0 L 1.03125 -8.640625 L 3 -8.640625 L 3 0 Z M 1.03125 0 "/></g></g></g><g fill="#ffffff" fill-opacity="1"><g transform="translate(734.813481, 358.696692)"><g><path d="M 5.140625 0.171875 C 4.242188 0.171875 3.445312 -0.015625 2.75 -0.390625 C 2.050781 -0.773438 1.503906 -1.304688 1.109375 -1.984375 C 0.722656 -2.660156 0.53125 -3.4375 0.53125 -4.3125 C 0.53125 -5.195312 0.722656 -5.976562 1.109375 -6.65625 C 1.503906 -7.332031 2.050781 -7.859375 2.75 -8.234375 C 3.445312 -8.617188 4.242188 -8.8125 5.140625 -8.8125 C 6.046875 -8.8125 6.84375 -8.617188 7.53125 -8.234375 C 8.21875 -7.859375 8.757812 -7.332031 9.15625 -6.65625 C 9.550781 -5.976562 9.75 -5.195312 9.75 -4.3125 C 9.75 -3.4375 9.550781 -2.660156 9.15625 -1.984375 C 8.757812 -1.304688 8.21875 -0.773438 7.53125 -0.390625 C 6.84375 -0.015625 6.046875 0.171875 5.140625 0.171875 Z M 2.53125 -4.3125 C 2.53125 -3.800781 2.640625 -3.347656 2.859375 -2.953125 C 3.085938 -2.554688 3.394531 -2.242188 3.78125 -2.015625 C 4.175781 -1.796875 4.628906 -1.6875 5.140625 -1.6875 C 5.648438 -1.6875 6.097656 -1.796875 6.484375 -2.015625 C 6.878906 -2.242188 7.1875 -2.554688 7.40625 -2.953125 C 7.625 -3.347656 7.734375 -3.800781 7.734375 -4.3125 C 7.734375 -4.832031 7.625 -5.289062 7.40625 -5.6875 C 7.1875 -6.082031 6.878906 -6.390625 6.484375 -6.609375 C 6.097656 -6.835938 5.648438 -6.953125 5.140625 -6.953125 C 4.628906 -6.953125 4.175781 -6.835938 3.78125 -6.609375 C 3.394531 -6.390625 3.085938 -6.082031 2.859375 -5.6875 C 2.640625 -5.289062 2.53125 -4.832031 2.53125 -4.3125 Z M 2.53125 -4.3125 "/></g></g></g><g fill="#ffffff" fill-opacity="1"><g transform="translate(748.097998, 358.696692)"><g><path d="M 1.03125 0 L 1.03125 -8.640625 L 2.703125 -8.640625 L 6.515625 -3.375 L 6.515625 -8.640625 L 8.46875 -8.640625 L 8.46875 0 L 6.796875 0 L 2.984375 -5.296875 L 2.984375 0 Z M 1.03125 0 "/></g></g></g><g fill="#ffffff" fill-opacity="1"><g transform="translate(760.604711, 358.696692)"><g><path d="M 4.046875 0.171875 C 3.328125 0.171875 2.703125 0.0507812 2.171875 -0.1875 C 1.648438 -0.425781 1.25 -0.765625 0.96875 -1.203125 C 0.6875 -1.640625 0.546875 -2.15625 0.546875 -2.75 L 2.46875 -2.75 C 2.46875 -2.34375 2.609375 -2.019531 2.890625 -1.78125 C 3.179688 -1.550781 3.5625 -1.4375 4.03125 -1.4375 C 4.445312 -1.4375 4.773438 -1.515625 5.015625 -1.671875 C 5.253906 -1.835938 5.375 -2.066406 5.375 -2.359375 C 5.375 -2.660156 5.226562 -2.90625 4.9375 -3.09375 C 4.644531 -3.28125 4.195312 -3.441406 3.59375 -3.578125 C 2.582031 -3.796875 1.832031 -4.117188 1.34375 -4.546875 C 0.851562 -4.984375 0.609375 -5.554688 0.609375 -6.265625 C 0.609375 -7.046875 0.894531 -7.664062 1.46875 -8.125 C 2.050781 -8.582031 2.84375 -8.8125 3.84375 -8.8125 C 4.519531 -8.8125 5.109375 -8.691406 5.609375 -8.453125 C 6.117188 -8.222656 6.507812 -7.894531 6.78125 -7.46875 C 7.0625 -7.050781 7.203125 -6.550781 7.203125 -5.96875 L 5.3125 -5.96875 C 5.3125 -6.351562 5.179688 -6.65625 4.921875 -6.875 C 4.671875 -7.09375 4.316406 -7.203125 3.859375 -7.203125 C 3.453125 -7.203125 3.128906 -7.125 2.890625 -6.96875 C 2.648438 -6.8125 2.53125 -6.585938 2.53125 -6.296875 C 2.53125 -6.035156 2.660156 -5.8125 2.921875 -5.625 C 3.191406 -5.445312 3.65625 -5.28125 4.3125 -5.125 C 5.382812 -4.863281 6.160156 -4.519531 6.640625 -4.09375 C 7.117188 -3.664062 7.359375 -3.113281 7.359375 -2.4375 C 7.359375 -1.613281 7.0625 -0.972656 6.46875 -0.515625 C 5.882812 -0.0546875 5.078125 0.171875 4.046875 0.171875 Z M 4.046875 0.171875 "/></g></g></g></svg>