<svg xmlns="http://www.w3.org/2000/svg" width="1500" zoomAndPan="magnify" viewBox="0 0 375 262.5" 
height="" preserveAspectRatio="xMidYMid meet" xmlns:v="https://vecta.io/nano"><defs><clipPath id="A"><path d="M171.461 154.453h66.605v3.863h-66.605zm0 0" clip-rule="nonzero"/></clipPath><path id="B" d="M265.168 158.101c-.336 0-.621-.055-.859-.156-.23-.113-.414-.27-.547-.469-.125-.195-.187-.43-.187-.703h.875c0 .188.063.336.188.438.133.105.313.156.531.156.188 0 .332-.035.438-.109.113-.07.172-.176.172-.312s-.07-.242-.203-.328c-.137-.094-.34-.164-.609-.219-.469-.102-.812-.254-1.031-.453s-.328-.457-.328-.781c0-.352.129-.633.391-.844s.617-.312 1.078-.312c.313 0 .582.055.813.156s.406.258.531.453a1.27 1.27 0 0 1 .188.688h-.859c0-.176-.062-.312-.187-.406-.117-.102-.273-.156-.469-.156-.187 0-.34.039-.453.109-.105.074-.156.172-.156.297s.055.23.172.313c.125.086.336.164.641.234.488.117.844.273 1.063.469.219.188.328.438.328.75 0 .375-.137.668-.406.875s-.641.313-1.109.313zm0 0"/><path id="C" d="M268.76 158.023v-3.937h2.594v.75h-1.703v.813h1.547v.75h-1.547v.859h1.766v.766zm0 0"/><path id="D" d="M285.61 158.023v-3.937h.891v3.094h1.734v.844zm0 0"/><path id="E" d="M266.78 163.251c-.406 0-.773-.082-1.094-.25-.312-.176-.562-.414-.75-.719-.18-.312-.266-.672-.266-1.078s.086-.758.266-1.062a1.92 1.92 0 0 1 .75-.719c.32-.176.688-.266 1.094-.266s.766.09 1.078.266a1.82 1.82 0 0 1 .75.719c.176.305.266.656.266 1.063s-.09.766-.266 1.078c-.18.305-.43.543-.75.719-.312.168-.672.25-1.078.25zm-1.187-2.047c0 .242.047.449.141.625.102.18.242.32.422.422s.383.156.625.156a1.18 1.18 0 0 0 .609-.156 1 1 0 0 0 .422-.422c.102-.176.156-.383.156-.625s-.055-.445-.156-.625c-.094-.176-.234-.316-.422-.422a1.22 1.22 0 0 0-.609-.156c-.242 0-.449.055-.625.156a1.15 1.15 0 0 0-.422.422c-.094.18-.141.387-.141.625zm0 0"/></defs><path d="M57.911 105.308h34.5v5.5H77.942v37.125H72.38v-37.125H57.911zm37.703 0h27.234v5.5h-21.797v13.031h16.688v5.5h-16.687v13.156h21.797v5.438H95.614zm68.48 34.906c-2.055 2.617-4.543 4.621-7.469 6.016-2.918 1.398-6.039 2.094-9.359 2.094-3.887 0-7.465-.977-10.734-2.937a21.21 21.21 0 0 1-7.859-7.922c-1.918-3.32-2.875-6.945-2.875-10.875a21.72 21.72 0 0 1 2.875-10.937c1.926-3.352 4.547-5.992 7.859-7.922 3.27-1.914 6.848-2.875 10.734-2.875a21.72 21.72 0 0 1 8.781 1.828 21.37 21.37 0 0 1 7.203 5.313l-4.062 3.594c-1.531-1.656-3.344-2.961-5.437-3.922-2.094-.914-4.258-1.375-6.484-1.375-2.875 0-5.539.719-7.984 2.156a16.3 16.3 0 0 0-5.891 5.953 16.31 16.31 0 0 0-2.156 8.188c0 2.93.719 5.637 2.156 8.125 1.438 2.531 3.398 4.516 5.891 5.953a15.14 15.14 0 0 0 7.984 2.219 15.83 15.83 0 0 0 7.016-1.625c2.176-1.051 4.031-2.535 5.563-4.453zm8.569-10.875v18.594H167.1v-42.625h5.563v18.531h20.828v-18.531h5.5v42.625h-5.437l-.062-18.594zm31.822 18.594v-42.625h12.906c3.008 0 5.82.547 8.438 1.641a19.38 19.38 0 0 1 6.75 4.844c1.738 1.969 3.086 4.219 4.047 6.75.914 2.531 1.375 5.195 1.375 7.984 0 2.836-.461 5.516-1.375 8.047-.961 2.574-2.309 4.844-4.047 6.813a18.34 18.34 0 0 1-6.75 4.844c-2.617 1.137-5.43 1.703-8.437 1.703zm5.438-5.437h7.469c3.176 0 5.926-.758 8.25-2.281 2.219-1.488 3.941-3.457 5.172-5.906 1.176-2.395 1.766-4.988 1.766-7.781a17.65 17.65 0 0 0-1.047-6.031c-.699-1.875-1.727-3.551-3.078-5.031a12.59 12.59 0 0 0-4.781-3.469c-1.93-.789-4.023-1.187-6.281-1.187h-7.469zm69.073-5.032c-1.969 3.355-4.59 5.996-7.859 7.922-3.324 1.961-6.93 2.938-10.812 2.938-3.93 0-7.527-.977-10.797-2.937a21.21 21.21 0 0 1-7.859-7.922c-1.918-3.32-2.875-6.945-2.875-10.875 0-3.883.957-7.504 2.875-10.859 1.969-3.32 4.609-5.961 7.922-7.922 3.281-1.926 6.859-2.891 10.734-2.891a21.42 21.42 0 0 1 10.813 2.891 21.77 21.77 0 0 1 7.859 7.922c1.914 3.355 2.875 6.977 2.875 10.859a21.64 21.64 0 0 1-2.875 10.875zm-4.719-19c-1.437-2.477-3.402-4.461-5.891-5.953a15.87 15.87 0 0 0-8.062-2.156c-2.918 0-5.602.719-8.047 2.156a16.48 16.48 0 0 0-5.891 5.953 15.98 15.98 0 0 0-2.156 8.125c0 2.969.719 5.699 2.156 8.188s3.398 4.453 5.891 5.891a15.47 15.47 0 0 0 8.047 2.219c2.969 0 5.676-.738 8.125-2.219 2.488-1.437 4.453-3.398 5.891-5.891 1.395-2.488 2.094-5.219 2.094-8.187a15.98 15.98 0 0 0-2.156-8.125zm8.317-13.156h34.5v5.5h-14.469v37.125h-5.562v-37.125h-14.469zm0 0" fill="#2e2e2e"/><g clip-path="url(#A)"><path fill="#2e2e2e" d="M171.461 154.453h66.602v3.863h-66.602zm0 0"/></g><g fill="#2e2e2e"><use href="#B"/><use href="#C"/><path d="M273.108 158.023l1.563-3.937h.875l1.578 3.938h-.969l-.266-.687h-1.562l-.266.688zm1.453-1.391h1.109l-.562-1.437zm4.436 1.391v-3.937h.766l1.391 2.047 1.406-2.047h.75v3.938h-.891v-2.375l-.953 1.406h-.625l-.953-1.406v2.375zm0 0"/><use href="#D"/><use href="#C" x="21.452"/><use href="#B" x="31.189"/><use href="#B" x="36.156"/><use href="#B" x="-3.855" y="5.15"/><use href="#E"/><use href="#D" x="-14.66" y="5.15"/><path d="M277.161 163.251c-.344 0-.641-.07-.891-.203a1.38 1.38 0 0 1-.562-.578c-.125-.258-.187-.566-.187-.922v-2.312h.891v2.25c0 .617.25.922.75.922s.75-.305.75-.922v-2.25h.906v2.313c0 .355-.07.664-.203.922a1.4 1.4 0 0 1-.578.578c-.242.133-.531.203-.875.203zm4.867-.078v-3.094h-1.25v-.844h3.391v.844h-1.25v3.094zm4.137 0v-3.937h.891v3.938zm0 0"/><use href="#E" x="24.463"/><path d="M295.414 163.173v-3.937h.766l1.734 2.391v-2.391h.891v3.938h-.766l-1.734-2.406v2.406zm0 0"/><use href="#B" x="37.312" y="5.15"/></g></svg>