<svg xmlns="http://www.w3.org/2000/svg" xmlns:xlink="http://www.w3.org/1999/xlink" width="1366" zoomAndPan="magnify" viewBox="0 0 1024.5 576" height="768" preserveAspectRatio="xMidYMid meet" version="1.0"><defs><g/><clipPath id="442b177b3a"><path d="M 256.511719 340.867188 L 767.488281 340.867188 L 767.488281 348.023438 L 256.511719 348.023438 Z M 256.511719 340.867188 " clip-rule="nonzero"/></clipPath></defs><g fill="#000000" fill-opacity="1"><g transform="translate(184.083319, 326.186326)"><g><path d="M 8.234375 -105.125 L 93.34375 -105.125 L 93.34375 -91.5625 L 57.65625 -91.5625 L 57.65625 0 L 43.921875 0 L 43.921875 -91.5625 L 8.234375 -91.5625 Z M 8.234375 -105.125 "/></g></g></g><g fill="#000000" fill-opacity="1"><g transform="translate(271.603451, 326.186326)"><g><path d="M 13.71875 -105.125 L 80.90625 -105.125 L 80.90625 -91.5625 L 27.125 -91.5625 L 27.125 -59.421875 L 68.3125 -59.421875 L 68.3125 -45.859375 L 27.125 -45.859375 L 27.125 -13.40625 L 80.90625 -13.40625 L 80.90625 0 L 13.71875 0 Z M 13.71875 -105.125 "/></g></g></g><g fill="#000000" fill-opacity="1"><g transform="translate(352.180017, 326.186326)"><g><path d="M 102.0625 -19.0625 C 97 -12.59375 90.863281 -7.640625 83.65625 -4.203125 C 76.4375 -0.753906 68.738281 0.96875 60.5625 0.96875 C 50.976562 0.96875 42.148438 -1.453125 34.078125 -6.296875 C 25.890625 -11.035156 19.425781 -17.550781 14.6875 -25.84375 C 9.957031 -34.019531 7.59375 -42.953125 7.59375 -52.640625 C 7.59375 -62.328125 9.957031 -71.316406 14.6875 -79.609375 C 19.425781 -87.898438 25.890625 -94.414062 34.078125 -99.15625 C 42.148438 -103.882812 50.976562 -106.25 60.5625 -106.25 C 68.09375 -106.25 75.304688 -104.742188 82.203125 -101.734375 C 89.085938 -98.609375 95.003906 -94.25 99.953125 -88.65625 L 89.953125 -79.765625 C 86.179688 -83.859375 81.710938 -87.09375 76.546875 -89.46875 C 71.378906 -91.726562 66.050781 -92.859375 60.5625 -92.859375 C 53.457031 -92.859375 46.890625 -91.082031 40.859375 -87.53125 C 34.722656 -83.863281 29.878906 -78.960938 26.328125 -72.828125 C 22.773438 -66.585938 21 -59.859375 21 -52.640625 C 21 -45.429688 22.773438 -38.757812 26.328125 -32.625 C 29.878906 -26.375 34.722656 -21.472656 40.859375 -17.921875 C 46.890625 -14.265625 53.457031 -12.4375 60.5625 -12.4375 C 66.582031 -12.4375 72.335938 -13.78125 77.828125 -16.46875 C 83.210938 -19.050781 87.789062 -22.710938 91.5625 -27.453125 Z M 102.0625 -19.0625 "/></g></g></g><g fill="#000000" fill-opacity="1"><g transform="translate(447.774077, 326.186326)"><g><path d="M 27.609375 -45.859375 L 27.609375 0 L 13.890625 0 L 13.890625 -105.125 L 27.609375 -105.125 L 27.609375 -59.421875 L 78.96875 -59.421875 L 78.96875 -105.125 L 92.53125 -105.125 L 92.53125 0 L 79.125 0 L 78.96875 -45.859375 Z M 27.609375 -45.859375 "/></g></g></g><g fill="#000000" fill-opacity="1"><g transform="translate(540.138571, 326.186326)"><g><path d="M 13.71875 0 L 13.71875 -105.125 L 45.53125 -105.125 C 52.96875 -105.125 59.914062 -103.78125 66.375 -101.09375 C 72.832031 -98.289062 78.375 -94.304688 83 -89.140625 C 87.3125 -84.296875 90.648438 -78.75 93.015625 -72.5 C 95.273438 -66.257812 96.40625 -59.695312 96.40625 -52.8125 C 96.40625 -45.8125 95.273438 -39.1875 93.015625 -32.9375 C 90.648438 -26.59375 87.3125 -21 83 -16.15625 C 78.375 -10.875 72.832031 -6.890625 66.375 -4.203125 C 59.914062 -1.398438 52.96875 0 45.53125 0 Z M 27.125 -13.40625 L 45.53125 -13.40625 C 53.394531 -13.40625 60.179688 -15.289062 65.890625 -19.0625 C 71.378906 -22.71875 75.628906 -27.5625 78.640625 -33.59375 C 81.546875 -39.507812 83 -45.914062 83 -52.8125 C 83 -57.976562 82.140625 -62.925781 80.421875 -67.65625 C 78.691406 -72.289062 76.160156 -76.4375 72.828125 -80.09375 C 69.597656 -83.863281 65.671875 -86.71875 61.046875 -88.65625 C 56.304688 -90.59375 51.132812 -91.5625 45.53125 -91.5625 L 27.125 -91.5625 Z M 27.125 -13.40625 "/></g></g></g><g fill="#000000" fill-opacity="1"><g transform="translate(630.888289, 326.186326)"><g><path d="M 106.734375 -25.84375 C 101.890625 -17.550781 95.429688 -11.035156 87.359375 -6.296875 C 79.179688 -1.453125 70.300781 0.96875 60.71875 0.96875 C 51.03125 0.96875 42.148438 -1.453125 34.078125 -6.296875 C 25.890625 -11.035156 19.425781 -17.550781 14.6875 -25.84375 C 9.957031 -34.019531 7.59375 -42.953125 7.59375 -52.640625 C 7.59375 -62.222656 9.957031 -71.160156 14.6875 -79.453125 C 19.539062 -87.628906 26.054688 -94.140625 34.234375 -98.984375 C 42.304688 -103.722656 51.132812 -106.09375 60.71875 -106.09375 C 70.1875 -106.09375 79.066406 -103.722656 87.359375 -98.984375 C 95.546875 -94.140625 102.003906 -87.628906 106.734375 -79.453125 C 111.472656 -71.160156 113.84375 -62.222656 113.84375 -52.640625 C 113.84375 -43.054688 111.472656 -34.125 106.734375 -25.84375 Z M 95.109375 -72.671875 C 91.554688 -78.804688 86.710938 -83.703125 80.578125 -87.359375 C 74.441406 -90.910156 67.820312 -92.6875 60.71875 -92.6875 C 53.507812 -92.6875 46.890625 -90.910156 40.859375 -87.359375 C 34.722656 -83.703125 29.878906 -78.804688 26.328125 -72.671875 C 22.773438 -66.535156 21 -59.859375 21 -52.640625 C 21 -45.316406 22.773438 -38.585938 26.328125 -32.453125 C 29.878906 -26.316406 34.722656 -21.472656 40.859375 -17.921875 C 46.992188 -14.265625 53.613281 -12.4375 60.71875 -12.4375 C 68.039062 -12.4375 74.71875 -14.265625 80.75 -17.921875 C 86.882812 -21.472656 91.726562 -26.316406 95.28125 -32.453125 C 98.71875 -38.585938 100.4375 -45.316406 100.4375 -52.640625 C 100.4375 -59.859375 98.660156 -66.535156 95.109375 -72.671875 Z M 95.109375 -72.671875 "/></g></g></g><g fill="#000000" fill-opacity="1"><g transform="translate(738.270283, 326.186326)"><g><path d="M 8.234375 -105.125 L 93.34375 -105.125 L 93.34375 -91.5625 L 57.65625 -91.5625 L 57.65625 0 L 43.921875 0 L 43.921875 -91.5625 L 8.234375 -91.5625 Z M 8.234375 -105.125 "/></g></g></g><g clip-path="url(#442b177b3a)"><path fill="#000000" d="M 256.511719 340.867188 L 767.484375 340.867188 L 767.484375 348.023438 L 256.511719 348.023438 Z M 256.511719 340.867188 " fill-opacity="1" fill-rule="nonzero"/></g></svg>